<?xml version="1.0" encoding="iso-8859-1"?>
<!-- Generator: Adobe Illustrator 19.0.0, SVG Export Plug-In . SVG Version: 6.00 Build 0)  -->
<svg version="1.1" id="Layer_1" xmlns="http://www.w3.org/2000/svg" xmlns:xlink="http://www.w3.org/1999/xlink" x="0px" y="0px"
	 viewBox="0 0 508.157 508.157" style="enable-background:new 0 0 508.157 508.157;" xml:space="preserve">
<g>
	<polygon style="fill:#2884A9;" points="449.278,6.557 161.278,73.757 161.278,129.357 449.278,62.557 	"/>
	<path style="fill:#2884A9;" d="M108.478,398.157c-28.8,0-52,23.2-52,52s23.2,52,52,52s52-23.2,52-52
		S137.278,398.157,108.478,398.157z"/>
	<path style="fill:#2884A9;" d="M400.478,329.757c-28.8,0-52,23.2-52,52c0,9.6,2.4,18.4,7.2,26c9.2,15.6,25.6,26,45.2,26
		c27.6,0,50-21.6,52-48.4c0-1.2,0-2.4,0-3.6C452.478,353.357,429.278,329.757,400.478,329.757z"/>
</g>
<path d="M400.078,440.157c-32,0-58-26-58-58s26-58,58-58s58,26,58,58S432.078,440.157,400.078,440.157z M400.078,331.757
	c-27.6,0-50,22.4-50,50s22.4,50,50,50s50-22.4,50-50S427.678,331.757,400.078,331.757z"/>
<path d="M159.278,434.157c-2.4,0-4-1.6-4-4v-358c0-2,1.2-3.6,3.2-4l292-68c1.2-0.4,2.4,0,3.2,0.8s1.6,2,1.6,3.2v358c0,2.4-1.6,4-4,4
	s-4-1.6-4-4V9.357l-284,66v354.8C163.278,432.557,161.678,434.157,159.278,434.157z"/>
<path d="M162.078,136.157c-2,0-3.6-1.2-4-3.2s0.8-4.4,2.8-4.8l288-68.4c2-0.4,4.4,0.8,4.8,2.8c0.4,2-0.8,4.4-2.8,4.8l-288,68.4
	C162.878,136.157,162.478,136.157,162.078,136.157z"/>
<path d="M400.078,411.757c-16.4,0-29.6-13.2-29.6-29.6s13.2-29.6,29.6-29.6c2.4,0,4,1.6,4,4s-1.6,4-4,4c-12,0-21.6,9.6-21.6,21.6
	s9.6,21.6,21.6,21.6s21.6-9.6,21.6-21.6c0-2.4,1.6-4,4-4s4,1.6,4,4C429.678,398.157,416.478,411.757,400.078,411.757z"/>
<path d="M108.078,508.157c-32,0-58-26-58-58s26-58,58-58s58,26,58,58S140.078,508.157,108.078,508.157z M108.078,400.157
	c-27.6,0-50,22.4-50,50s22.4,50,50,50s50-22.4,50-50S135.678,400.157,108.078,400.157z"/>
<path d="M108.078,479.757c-16.4,0-29.6-13.2-29.6-29.6s13.2-29.6,29.6-29.6c2.4,0,4,1.6,4,4s-1.6,4-4,4c-12,0-21.6,9.6-21.6,21.6
	s9.6,21.6,21.6,21.6s21.6-9.6,21.6-21.6c0-2.4,1.6-4,4-4s4,1.6,4,4C137.678,466.557,124.478,479.757,108.078,479.757z"/>
<g>
</g>
<g>
</g>
<g>
</g>
<g>
</g>
<g>
</g>
<g>
</g>
<g>
</g>
<g>
</g>
<g>
</g>
<g>
</g>
<g>
</g>
<g>
</g>
<g>
</g>
<g>
</g>
<g>
</g>
</svg>
