<svg id="svg2" xmlns="http://www.w3.org/2000/svg" xmlns:xlink="http://www.w3.org/1999/xlink" viewBox="0 0 336.43 314.29">
  <defs>
    <linearGradient id="linear-gradient" x1="439.12" y1="-24.7" x2="178.9" y2="-269.03" gradientTransform="matrix(1, 0, 0, -1, -140.28, -0.91)" gradientUnits="userSpaceOnUse">
      <stop offset="0" stop-color="#f7ec9a"/>
      <stop offset="0.13" stop-color="#f6ea8d"/>
      <stop offset="0.46" stop-color="#f5e98a"/>
      <stop offset="0.81" stop-color="#f8ed9d"/>
      <stop offset="1" stop-color="#f5e98a"/>
    </linearGradient>
  </defs>
  <g id="layer1">
    <rect id="rect4859" width="336.43" height="314.29" fill-opacity="0" opacity="0.45" style="isolation: isolate"/>
    <path id="path4861" d="M19.66,10.89l298.11-.18L322.52,295S88.26,290.21,9,293c7.82-70.28,10.69-282.1,10.69-282.1Z" opacity="0.45" style="isolation: isolate"/>
    <path id="path4863" d="M16.62,4.43,320.9,5.73,319.69,290S57.13,295.78,21.2,274.45c-7.5-36.06-4.58-270-4.58-270Z" fill="url(#linear-gradient)"/>
    <g id="text4785">
      <text transform="translate(39.46 79.5)" font-size="40" fill="#5a4e0f" font-family="ArialMT, Arial" style="isolation: isolate"><tspan xml:space="preserve">       </tspan></text>
      <text transform="translate(39.46 79.5)" font-size="14" fill="#5a4e0f" font-family="ArialMT, Arial" style="isolation: isolate">Feel free to contact me about any potential <tspan x="0" y="16.8">work or questions you may have.</tspan><tspan x="0" y="50.4">Please provide details about the job and </tspan><tspan x="0" y="67.2">the time frame in which you would like it </tspan><tspan x="0" y="84">completed in belo</tspan><tspan x="109.74" y="84" letter-spacing="-0.06em">w</tspan><tspan x="119.08" y="84">.</tspan><tspan x="0" y="117.6">I look forward to hearing from you,</tspan><tspan x="0" y="151.2">-</tspan><tspan x="4.66" y="151.2" letter-spacing="-0.02em"> </tspan><tspan x="8.3" y="151.2">TG</tspan></text>
      <text transform="translate(268.25 79.5)" font-size="40" fill="#5a4e0f" font-family="ArialMT, Arial"><tspan xml:space="preserve">   </tspan><tspan x="0" y="48" xml:space="preserve">  </tspan></text>
    </g>
    <g id="text4789">
      <text transform="translate(39.46 50.17)" font-size="35.71" fill="#5a4e0f" font-family="ArialMT, Arial" style="isolation: isolate"><tspan xml:space="preserve">       </tspan></text>
      <text transform="translate(39.46 50.17)" font-size="22.32" fill="#5a4e0f" font-family="Arial-BoldMT, Arial" font-weight="700" style="isolation: isolate">Just a Note</text>
      <text transform="translate(159.76 50.17)" font-size="35.71" fill="#5a4e0f" font-family="ArialMT, Arial"><tspan xml:space="preserve">     </tspan></text>
    </g>
  </g>
</svg>
