<?xml version="1.0" encoding="utf-8"?>
<!-- Generator: Adobe Illustrator 26.2.1, SVG Export Plug-In . SVG Version: 6.00 Build 0)  -->
<svg version="1.1" id="svg2" xmlns="http://www.w3.org/2000/svg" xmlns:xlink="http://www.w3.org/1999/xlink" x="0px" y="0px"
	 viewBox="0 0 336.4 314.3" style="enable-background:new 0 0 336.4 314.3;" xml:space="preserve">
<style type="text/css">
	.st0{opacity:0.45;fill-opacity:0;enable-background:new    ;}
	.st1{opacity:0.45;enable-background:new    ;}
	.st2{fill:url(#path4863_00000073706666935574776750000006342526529336395918_);}
	.st3{fill:#5A4E0F;}
	.st4{font-family:'ArialMT';}
	.st5{font-size:40px;}
	.st6{enable-background:new    ;}
	.st7{font-size:17px;}
	.st8{font-size:14px;}
	.st9{font-size:35.71px;}
	.st10{font-family:'Arial-BoldMT';}
	.st11{font-size:22.32px;}
</style>
<g id="layer1">
	<rect id="rect4859" y="1" class="st0" width="336.4" height="314.3"/>
	<path id="path4861" class="st1" d="M19.7,11.9l298.1-0.2l4.8,284.3c0,0-234.3-4.8-313.5-2C16.8,223.7,19.7,11.9,19.7,11.9
		L19.7,11.9z"/>
	
		<linearGradient id="path4863_00000127763788884554027340000007100042254644815005_" gradientUnits="userSpaceOnUse" x1="439.4793" y1="538.0827" x2="179.2593" y2="782.4127" gradientTransform="matrix(1 0 0 1 -140.28 -512.91)">
		<stop  offset="0" style="stop-color:#F7EC9A"/>
		<stop  offset="0.13" style="stop-color:#F6EA8D"/>
		<stop  offset="0.46" style="stop-color:#F5E98A"/>
		<stop  offset="0.81" style="stop-color:#F8ED9D"/>
		<stop  offset="1" style="stop-color:#F5E98A"/>
	</linearGradient>
	<path id="path4863" style="fill:url(#path4863_00000127763788884554027340000007100042254644815005_);" d="M16.6,5.4l304.3,1.3
		L319.7,291c0,0-262.6,5.8-298.5-15.5C13.7,239.4,16.6,5.5,16.6,5.4L16.6,5.4z"/>
	<g id="text4785">
		<text transform="matrix(1 0 0 1 39.46 80.5)" class="st3 st4 st5">       </text>
		<text transform="matrix(1 0 0 1 24.7406 80.2584)" class="st6"><tspan x="0" y="0" class="st3 st4 st7">Feel free to contact me about any</tspan><tspan x="0" y="20.4" class="st3 st4 st7">potential questions you may have. </tspan></text>
		<text transform="matrix(1 0 0 1 26.1341 137.7965)" class="st6"><tspan x="0" y="0" class="st3 st4 st7">Please provide details about the job</tspan><tspan x="0" y="20.4" class="st3 st4 st7">and the time frame in which you would</tspan><tspan x="0" y="40.8" class="st3 st4 st7">like it completed in below.</tspan></text>
		<text transform="matrix(1 0 0 1 158.54 164.5)" class="st3 st4 st8">.</text>
		<text transform="matrix(1 0 0 1 26.134 213.4039)" class="st3 st4 st7">I look forward to hearing from you,</text>
		<text transform="matrix(1 0 0 1 39.46 239.7)" class="st3 st4 st7">-</text>
		<text transform="matrix(1 0 0 1 44.12 231.7)" class="st3 st4 st8"> </text>
		<text transform="matrix(1 0 0 1 48.1513 242.1194)" class="st3 st4 st7">TG</text>
		<text transform="matrix(1 0 0 1 268.25 80.5)" class="st3 st4 st5">   </text>
		<text transform="matrix(1 0 0 1 268.25 128.5)" class="st3 st4 st5">  </text>
	</g>
	<g id="text4789">
		<text transform="matrix(1 0 0 1 39.46 51.17)" class="st3 st4 st9">       </text>
		<text transform="matrix(1 0 0 1 39.46 51.17)" class="st3 st10 st11">Just a Note</text>
		<text transform="matrix(1 0 0 1 159.76 51.17)" class="st3 st4 st9">     </text>
	</g>
</g>
</svg>
