<svg id="Layer_1" data-name="Layer 1" xmlns="http://www.w3.org/2000/svg" viewBox="0 0 256 249.61">
  <g id="ai">
    <rect x="48.72" y="50.26" width="166.21" height="166.21" fill="#fe8c0e"/>
    <path d="M115.21,120.43c1,2.78,1.81,5.44,2.45,7.68H90.56c1.6-4.48,3.21-9.49,4.7-15,1.7-5.33,3.3-10.66,4.9-15.78a128.32,128.32,0,0,0,3.62-13.76H104c.75,2.56,1.5,5.33,2.35,8.32s1.82,6.19,2.87,9.49,2,6.51,3.1,9.82S114.25,117.55,115.21,120.43Z" fill="#2e0000"/>
    <path d="M210.66,0H45.33A45.3,45.3,0,0,0,0,45.27v159a45.3,45.3,0,0,0,45.26,45.34h165.4A45.31,45.31,0,0,0,256,204.36v-159A45.32,45.32,0,0,0,210.74,0h-.08ZM156.75,176.32h-22.3a1.59,1.59,0,0,1-1.7-1.18L124,149.81H84.32l-8.1,25a1.88,1.88,0,0,1-2,1.5H54.16c-1.17,0-1.48-.64-1.17-1.91L87.34,75.56c.32-1.06.64-2.23,1.07-3.52a37.57,37.57,0,0,0,.64-6.94,1.06,1.06,0,0,1,.86-1.17h27.62c.86,0,1.28.32,1.39.85l38.94,109.83c.33,1.18,0,1.71-1.06,1.71ZM193,174.73c0,1.16-.43,1.7-1.39,1.7H170.73a1.49,1.49,0,0,1-1.61-1.34h0a1,1,0,0,1,0-.35V92.59c0-1.07.43-1.5,1.39-1.5h21.17c1,0,1.39.53,1.39,1.5Zm-2.23-96.32a12.52,12.52,0,0,1-9.7,3.73,13.15,13.15,0,0,1-9.49-3.73A13.86,13.86,0,0,1,168,68.6a12.52,12.52,0,0,1,3.85-9.5,13.65,13.65,0,0,1,9.49-3.73A12.77,12.77,0,0,1,191,59.1a14.66,14.66,0,0,1-.21,19.31Z" fill="#2e0000"/>
  </g>
</svg>
