<svg id="Layer_1" data-name="Layer 1" xmlns="http://www.w3.org/2000/svg" viewBox="0 0 48 31.06">
  <g>
    <path d="M47.33,11a7.48,7.48,0,0,0-5.69-.53,7.8,7.8,0,0,0-3.08-5L37.94,5l-.51.59a6.64,6.64,0,0,0-1.2,4.72,6,6,0,0,0,1.15,3.17,8.69,8.69,0,0,1-1.66.75,10.7,10.7,0,0,1-3.41.57H29.83v-5h-4.9V0H19V4.9H9.24V9.81H4.33v5H.14l-.07.74A14.27,14.27,0,0,0,1.2,22.78l.44.89.05.09c3,5.13,8.34,7.3,14.13,7.3,11.21,0,20.45-5,24.7-15.58,2.84.14,5.74-.69,7.13-3.4l.35-.69ZM10.05,5.72H14.3V10H10.05Zm5.16,17.22A1.18,1.18,0,1,1,14,21.77,1.17,1.17,0,0,1,15.21,22.94ZM10.05,10.63H14.3v4.25H10.05Zm-4.9,0H9.4v4.25H5.15ZM15.82,30.24c-6.07,0-9.34-2.08-12-4.75h0q.9.06,1.74.06H6.1c.62,0,1.22,0,1.79,0H8a19.42,19.42,0,0,0,2-.21h0l.43-.08h.07l.37-.07.14,0,.28-.06.34-.09.07,0a10.34,10.34,0,0,0,5.38,5.3Zm3.39-15.36H15V10.63h4.25Zm0-4.91H15V5.72h4.25Zm4.9,4.91H19.86V10.63h4.25Zm0-4.91H19.86V5.72h4.25Zm0-4.9H19.86V.82h4.25ZM29,14.88H24.77V10.63H29Z" fill="#4897e6"/>
    <path d="M14.34,22.16a.77.77,0,0,0-.3-.06.84.84,0,1,0,.84.84.88.88,0,0,0-.07-.32.36.36,0,0,1-.3.18.34.34,0,0,1-.17-.64Z" fill="#4897e6"/>
  </g>
</svg>
