<svg id="Layer_1" data-name="Layer 1" xmlns="http://www.w3.org/2000/svg" viewBox="0 0 22.21 48">
  <g>
    <path d="M11.08,39l.05,0h0Z"/>
    <g>
      <path d="M21.87,18.38C19.43,7.64,11.69.13,11.69.13h0c3,12.57.6,41.14.6,41.14S24.4,33.15,21.87,18.38Z"/>
      <path d="M10.21.14h0A.89.89,0,0,0,10.16,0C10.09,1,.6,9.36,0,21.55S10.81,41.28,10.81,41.28,13.17,12.71,10.21.14Z"/>
    </g>
    <path d="M11.7,42.77a22.21,22.21,0,0,1-1.82-1.42h0c1.7,2.47.89,6.65.89,6.65h1.6a23.82,23.82,0,0,1,.07-5,5.6,5.6,0,0,1,1.07-1.64h0A18.8,18.8,0,0,1,11.7,42.77Z"/>
  </g>
</svg>
