<svg id="Layer_1" data-name="Layer 1" xmlns="http://www.w3.org/2000/svg" viewBox="0 0 42.57 48">
  <g>
    <path d="M40.72,10.64,23.13.47a3.86,3.86,0,0,0-3.7,0L1.85,10.64A3.69,3.69,0,0,0,0,13.84v20.3a3.72,3.72,0,0,0,1.85,3.21L6.46,40a7.51,7.51,0,0,0,4.05,1.1c3.31,0,5.21-2,5.21-5.49v-20a.51.51,0,0,0-.51-.51H13a.5.5,0,0,0-.51.51v20c0,1.54-1.6,3.08-4.22,1.78L3.43,34.61a.52.52,0,0,1-.27-.47V13.84a.56.56,0,0,1,.27-.48L21,3.21a.57.57,0,0,1,.54,0L39.14,13.36a.55.55,0,0,1,.27.48v20.3a.54.54,0,0,1-.27.48L21.55,44.77a.57.57,0,0,1-.54,0l-4.52-2.68a.44.44,0,0,0-.43,0,11.88,11.88,0,0,1-2.66,1.21c-.29.1-.72.27.16.76l5.87,3.48a3.79,3.79,0,0,0,1.85.49,3.74,3.74,0,0,0,1.85-.49L40.72,37.35a3.72,3.72,0,0,0,1.85-3.21V13.84A3.7,3.7,0,0,0,40.72,10.64Z" fill="#749d69"/>
    <path d="M26.71,30.93c-4.65,0-5.68-1.17-6-3.49a.51.51,0,0,0-.5-.43H17.91a.51.51,0,0,0-.51.51c0,3,1.62,6.5,9.31,6.5,5.58,0,8.77-2.2,8.77-6s-2.56-4.81-8-5.53-6-1.09-6-2.37c0-1.06.47-2.47,4.52-2.47,3.61,0,4.94.78,5.49,3.22a.51.51,0,0,0,.5.39h2.28a.52.52,0,0,0,.37-.16.48.48,0,0,0,.13-.39c-.35-4.2-3.14-6.15-8.77-6.15-5,0-8,2.11-8,5.66,0,3.85,3,4.92,7.79,5.39C31.55,26.15,32,27,32,28.12,32,30.09,30.42,30.93,26.71,30.93Z" fill="#749d69"/>
  </g>
</svg>
