<svg xmlns="http://www.w3.org/2000/svg" viewBox="0 0 256 256">
  <g id="ai">
    <rect x="48.72" y="53.45" width="166.21" height="166.21" fill="#fe8c0e"/>
    <path d="M115.21,123.62c1,2.78,1.81,5.44,2.45,7.68H90.56c1.6-4.48,3.21-9.49,4.7-15,1.7-5.33,3.3-10.66,4.9-15.78a128.32,128.32,0,0,0,3.62-13.76H104c.75,2.56,1.5,5.33,2.35,8.32s1.82,6.19,2.87,9.49,2,6.51,3.1,9.82S114.25,120.74,115.21,123.62Z"/>
    <path d="M210.66,3.19H45.33A45.31,45.31,0,0,0,0,48.46v159a45.31,45.31,0,0,0,45.26,45.34h165.4A45.3,45.3,0,0,0,256,207.55v-159A45.31,45.31,0,0,0,210.74,3.19ZM156.75,179.51h-22.3a1.59,1.59,0,0,1-1.7-1.18L124,153H84.32L76.22,178a1.87,1.87,0,0,1-2,1.5H54.16c-1.17,0-1.48-.64-1.17-1.91L87.34,78.75c.32-1.06.64-2.23,1.07-3.52a37.57,37.57,0,0,0,.64-6.94,1.06,1.06,0,0,1,.86-1.17h27.62c.86,0,1.28.32,1.39.85L157.86,177.8c.33,1.18,0,1.71-1.06,1.71ZM193,177.92c0,1.16-.43,1.7-1.39,1.7H170.73a1.48,1.48,0,0,1-1.61-1.35,1.36,1.36,0,0,1,0-.35V95.78c0-1.07.43-1.5,1.39-1.5h21.17c1,0,1.39.53,1.39,1.5ZM190.77,81.6a12.52,12.52,0,0,1-9.7,3.73,13.15,13.15,0,0,1-9.49-3.73A13.84,13.84,0,0,1,168,71.79a12.52,12.52,0,0,1,3.85-9.5,13.65,13.65,0,0,1,9.49-3.73,12.75,12.75,0,0,1,9.7,3.73,14.66,14.66,0,0,1-.21,19.31Z" fill="#2e0000"/>
  </g>
</svg>
