<?xml version="1.0" encoding="utf-8"?>
<!-- Generator: Adobe Illustrator 25.4.1, SVG Export Plug-In . SVG Version: 6.00 Build 0)  -->
<svg version="1.1" id="Layer_1" xmlns="http://www.w3.org/2000/svg" xmlns:xlink="http://www.w3.org/1999/xlink" x="0px" y="0px"
	 viewBox="0 0 512 512" style="enable-background:new 0 0 512 512;" xml:space="preserve">
<style type="text/css">
	.st0{fill:#E1C81E;}
</style>
<rect width="512" height="512"/>
<path class="st0" d="M0,0v512h512V0H0z M274.3,397.7c0,49.8-29.4,74.1-72.1,74.1c-38.5,0-60.8-19.9-72.2-44l39.2-23.7
	c7.6,13.4,13.3,24.7,29.8,24.7c13.7,0,25-6.2,25-30.2V237.7h50.3V397.7z M387.8,470.7c-44.7,0-73.5-20.2-87.6-48l39.2-22.7
	c10.3,16.8,23.7,28.1,47.4,28.1c19.9,0,31.5-8.8,31.5-22.6c0-16.5-11.9-22.3-33.9-32l-12-5.2c-34.7-14.8-57.7-33.3-57.7-72.5
	c0-36.1,27.5-62.4,70.4-62.4c30.6,0,52.6,9.5,68.4,37.3L416,294.9c-8.3-14.8-17.1-20.6-30.9-20.6c-14.1,0-23,8.9-23,20.6
	c0,14.4,8.9,20.3,29.6,29.2l12,5.2c40.9,17.5,63.9,35.4,63.9,75.6C467.6,448.1,433.5,470.7,387.8,470.7z"/>
</svg>
