<svg id="ps" xmlns="http://www.w3.org/2000/svg" viewBox="0 0 256 256">
  <rect x="55.13" y="44.03" width="166.21" height="166.21" fill="#009efe"/>
  <path id="ps-logo" d="M105.07,89a31.46,31.46,0,0,0-12.59-2.14c-2.77,0-5.23,0-7.25.11a23.75,23.75,0,0,0-4.38.11v35.84c1.5.1,2.88.21,4.16.21h5.66a39.77,39.77,0,0,0,12.26-1.92,18.38,18.38,0,0,0,8.75-5.65c2.24-2.67,3.31-6.3,3.31-11A17.57,17.57,0,0,0,112.53,95,15.4,15.4,0,0,0,105.07,89ZM210.67,2.33H45.33A45.3,45.3,0,0,0,0,47.67V206.59a45.29,45.29,0,0,0,45.33,45.33H210.67A45.29,45.29,0,0,0,256,206.59V47.67A45.3,45.3,0,0,0,210.67,2.33ZM131.83,126.6a36.51,36.51,0,0,1-17.16,13c-7.26,2.67-15.26,3.63-24,3.63-2.56,0-4.27,0-5.34-.11s-2.56-.1-4.58-.1v34.23a1.35,1.35,0,0,1-1.18,1.5H58.88c-.85,0-1.28-.44-1.28-1.4V67.61c0-.74.32-1.17,1.07-1.17,1.81,0,3.52,0,6-.11s5.23-.1,8.11-.21,6-.11,9.28-.21,6.5-.11,9.7-.11c8.75,0,16,1.07,22,3.31A38.1,38.1,0,0,1,128,77.85,34.18,34.18,0,0,1,135.79,90a41.08,41.08,0,0,1,2.44,13.87Q138.25,117.64,131.83,126.6Zm75.64,41.49a27,27,0,0,1-11.95,9.51c-5.23,2.23-11.63,3.39-19.32,3.39a73.35,73.35,0,0,1-14.49-1.38,43.3,43.3,0,0,1-10.88-3.41,2.08,2.08,0,0,1-1.19-2V155.63a1.18,1.18,0,0,1,.44-1,.81.81,0,0,1,1,.1A45.24,45.24,0,0,0,164.27,160a49.36,49.36,0,0,0,12.58,1.6c4.06,0,6.94-.55,8.86-1.51a5,5,0,0,0,2.88-4.48c0-1.5-.86-2.88-2.56-4.26s-5.22-3-10.45-5a65.71,65.71,0,0,1-15.14-7.67,28,28,0,0,1-8.12-9.06,23,23,0,0,1-2.44-10.89,25.07,25.07,0,0,1,3.63-12.91A26.27,26.27,0,0,1,164.7,96c5-2.55,11.3-3.73,18.87-3.73a91.9,91.9,0,0,1,13.23,1A37.37,37.37,0,0,1,206,95.67a1.86,1.86,0,0,1,1.07,1,5.11,5.11,0,0,1,.21,1.28v17.38a1.31,1.31,0,0,1-.53,1.07,2.89,2.89,0,0,1-1.92,0,37.72,37.72,0,0,0-10.24-3.63,56.44,56.44,0,0,0-11.95-1.38,21.6,21.6,0,0,0-6.41.74,5.48,5.48,0,0,0-3.3,2.14,5.59,5.59,0,0,0-.86,2.88,4.68,4.68,0,0,0,1.08,2.77,12,12,0,0,0,3.63,2.88c2.44,1.28,5,2.45,7.56,3.52a77.14,77.14,0,0,1,16.44,7.79,24.52,24.52,0,0,1,8.41,8.85,23,23,0,0,1,2.46,11A24.83,24.83,0,0,1,207.47,168.09Z" fill="#001c2f"/>
</svg>
