<svg xmlns="http://www.w3.org/2000/svg" viewBox="0 0 256 256">
  <g id="xd">
    <rect x="36.5" y="25.01" width="189.29" height="189.29" fill="#ff4af4"/>
    <path d="M210.74,3.2H45.34A45.3,45.3,0,0,0,0,48.46v159A45.3,45.3,0,0,0,45.26,252.8h165.4A45.3,45.3,0,0,0,256,207.54v-159A45.3,45.3,0,0,0,210.74,3.2ZM137,178.91c-.11.43-.54.11-1.18.21H111.36c-1.71,0-2.88-.11-3.63-1.17-2.23-4.48-4.59-8.85-6.83-13.34s-4.69-8.85-7.24-13.43S88.54,142,86,137.31h-.21c-2.24,4.58-4.69,9.17-7.15,13.76s-4.9,9.17-7.26,13.65-4.9,9.07-7.36,13.44c-.42,1.07-1.27,1.17-2.45,1.17H38.09c-.43,0-.75.21-.75-.32a1.47,1.47,0,0,1,.21-1.17l33.17-54.4L38.41,68.72c-.32-.43-.43-.85-.21-1.07a1.24,1.24,0,0,1,1.07-.43H63.48a6.23,6.23,0,0,1,1.49.21,2.94,2.94,0,0,1,1.07,1c2,4.59,4.38,9.18,6.83,13.76s5,9.07,7.68,13.55,4.9,9,7.15,13.55h.21c2.23-4.7,4.58-9.28,6.93-13.76s4.8-9,7.25-13.44,4.81-9.06,7.15-13.44a1.83,1.83,0,0,1,.64-1.07,2,2,0,0,1,1.39-.21h22.5a1,1,0,0,1,1.18.75c.11.11-.11.53-.32.75l-32,52.8,34.14,56A1.88,1.88,0,0,1,137,178.91Zm80.74-4.19v0a81.45,81.45,0,0,1-17.38,5.12,94.17,94.17,0,0,1-16.42,1.5,53.13,53.13,0,0,1-23-4.8,37.2,37.2,0,0,1-16.11-14.51A46.14,46.14,0,0,1,139,137.74a43.74,43.74,0,0,1,5.87-22.5,44.34,44.34,0,0,1,17-16.54,54.7,54.7,0,0,1,27-6.19,21,21,0,0,1,2.24.11c1,.11,2,.11,3.3.21V59.11c0-.75.32-1.18,1.07-1.18H217a1,1,0,0,1,1.07.75V160.43c0,1.92.11,4.06.21,6.4s.32,4.37.43,6.19A1.73,1.73,0,0,1,217.71,174.72ZM188,112.32v0a26.25,26.25,0,0,0-12.05,2.78,24,24,0,0,0-9.06,7.89,23.62,23.62,0,0,0-3.53,13.55,29.78,29.78,0,0,0,1.82,11,20.82,20.82,0,0,0,4.8,7.58,18.48,18.48,0,0,0,7.26,4.26,27.78,27.78,0,0,0,8.86,1.39c1.59,0,3.09-.11,4.48-.21a9.14,9.14,0,0,0,3.84-.53V113.12a28.37,28.37,0,0,0-2.87-.53A25,25,0,0,0,188,112.32Z" fill="#400030"/>
  </g>
</svg>
